<svg t="1606810597223" class="icon" viewBox="0 0 1024 1024" version="1.1" xmlns="http://www.w3.org/2000/svg" p-id="742" width="16" height="16"><path d="M932.564 855.875h-305.1c-14.7 0-29.4-14.7-29.4-29.4s14.7-29.4 29.4-29.4h305.1c19.575 0 29.4 14.7 29.4 29.4s-14.7 29.4-29.4 29.4z m0-93.075h-305.1c-14.7 0-29.4-14.7-29.4-29.4 0-19.575 14.7-29.363 29.4-29.363h305.1c14.7 0 29.4 14.7 29.4 29.363 0 14.7-14.7 29.4-29.4 29.4zM769.55 630.312a29.175 29.175 0 0 1-20.25-8.062l-1.5-1.275a387.637 387.637 0 0 0-235.462-79.388c-215.775 0-391.313 175.426-391.313 391.013a29.55 29.55 0 0 1-29.512 29.362A29.587 29.587 0 0 1 62 932.525a445.988 445.988 0 0 1 81.3-257.475 450.375 450.375 0 0 1 208.013-162.262l27-10.35-21.938-18.826A239.362 239.362 0 0 1 272.414 301.7c0-132.15 107.625-239.7 239.925-239.7S752.3 169.55 752.3 301.7a239.362 239.362 0 0 1-83.962 181.912l-21.975 18.825 27.037 10.35c37.65 14.4 73.463 34.013 106.463 58.388l8.025 6.563a29.325 29.325 0 0 1 11.175 23.062 29.625 29.625 0 0 1-29.513 29.512zM693.276 301.7A181.012 181.012 0 0 0 512.34 120.988a181.012 181.012 0 0 0-180.9 180.712 181.012 181.012 0 0 0 180.9 180.75A181.012 181.012 0 0 0 693.276 301.7z m-65.812 593.362h305.1c19.575 0 29.4 14.663 29.4 29.363s-14.7 29.4-29.4 29.4h-305.1c-14.7 0-29.4-14.7-29.4-29.4s14.7-29.363 29.4-29.363z" fill="#1196db" p-id="743"></path></svg>